<svg width="14" height="14" viewBox="0 0 14 14" fill="none" xmlns="http://www.w3.org/2000/svg">
<path d="M6.98667 15C3.12595 15 0 11.926 0 8.163H2.79993C2.79993 10.4418 4.67618 12.2707 6.98667 12.2707C9.32382 12.2707 11.2001 10.4417 11.2001 8.163C11.2001 5.91017 9.32382 4.08133 6.98667 4.08133H4.83945V5.45983L0 2.72967L4.83945 4.41628e-07V1.35183H6.98667C10.8469 1.35183 14 4.39967 14 8.163C14 11.926 10.8469 15 6.98667 15Z" fill="#2469FF"/>
<circle cx="7" cy="8" r="5" fill="black"/>
<path d="M6.184 6.70667H7.62133L5.624 11L3.62667 6.70667H5.064L5.624 7.92L6.184 6.70667ZM8.74133 6.70667H10.1787L8.18133 11L6.184 6.70667H7.62133L8.18133 7.92L8.74133 6.70667Z" fill="white"/>
</svg>
