<?xml version="1.0" encoding="UTF-8"?>
<svg xmlns="http://www.w3.org/2000/svg" xmlns:xlink="http://www.w3.org/1999/xlink" width="48px" height="40px" viewBox="0 0 48 40" version="1.1">
<g id="surface1">
<path style=" stroke:none;fill-rule:nonzero;fill:rgb(14.117648%,41.176471%,100%);fill-opacity:1;" d="M 17.964844 40 C 8.039062 40 0 32.128906 0 22.496094 L 7.199219 22.496094 C 7.199219 28.332031 12.023438 33.011719 17.964844 33.011719 C 23.976562 33.011719 28.800781 28.332031 28.800781 22.496094 C 28.800781 16.730469 23.976562 12.046875 17.964844 12.046875 L 12.445312 12.046875 L 12.445312 15.578125 L 0 8.589844 L 12.445312 1.601562 L 12.445312 5.0625 L 17.964844 5.0625 C 27.890625 5.0625 36 12.863281 36 22.496094 C 36 32.128906 27.890625 40 17.964844 40 Z M 17.964844 40 "/>
<path style=" stroke:none;fill-rule:nonzero;fill:rgb(0%,0%,0%);fill-opacity:1;" d="M 31.199219 22.398438 C 31.199219 14.890625 25.109375 8.800781 17.601562 8.800781 C 10.089844 8.800781 4 14.890625 4 22.398438 C 4 29.910156 10.089844 36 17.601562 36 C 25.109375 36 31.199219 29.910156 31.199219 22.398438 Z M 31.199219 22.398438 "/>
<path style=" stroke:none;fill-rule:nonzero;fill:rgb(100%,100%,100%);fill-opacity:1;" d="M 15.589844 18.625 L 19.53125 18.625 L 14.054688 30.398438 L 8.574219 18.625 L 12.519531 18.625 L 14.054688 21.953125 Z M 22.605469 18.625 L 26.546875 18.625 L 21.070312 30.398438 L 15.589844 18.625 L 19.53125 18.625 L 21.070312 21.953125 Z M 22.605469 18.625 "/>
</g>
</svg>
