<svg width="60" height="50" viewBox="0 0 60 50" fill="none" xmlns="http://www.w3.org/2000/svg">
<path d="M22.4571 50C10.0477 50 0 40.1632 0 28.1216H8.99978C8.99978 35.4139 15.0306 41.2661 22.4571 41.2661C29.9694 41.2661 36.0002 35.4133 36.0002 28.1216C36.0002 20.9125 29.9694 15.0603 22.4571 15.0603H15.5554V19.4715L0 10.7349L15.5554 2V6.32587H22.4571C34.8649 6.32587 45 16.0789 45 28.1216C45 40.1632 34.8649 50 22.4571 50Z" fill="#2469FF"/>
<circle cx="22" cy="28" r="17" fill="black"/>
<path d="M19.488 23.28H24.416L17.568 38L10.72 23.28H15.648L17.568 27.44L19.488 23.28ZM28.256 23.28H33.184L26.336 38L19.488 23.28H24.416L26.336 27.44L28.256 23.28Z" fill="white"/>
</svg>
