<?xml version="1.0" encoding="UTF-8"?>
<svg xmlns="http://www.w3.org/2000/svg" xmlns:xlink="http://www.w3.org/1999/xlink" width="48px" height="40px" viewBox="0 0 38 40" version="1.1">
<g id="surface1">
<path style=" stroke:none;fill-rule:nonzero;fill:rgb(14.117648%,41.176471%,100%);fill-opacity:1;" d="M 18.964844 40 C 8.484375 40 0 31.800781 0 21.769531 L 7.601562 21.769531 C 7.601562 27.84375 12.691406 32.722656 18.964844 32.722656 C 25.308594 32.722656 30.398438 27.84375 30.398438 21.769531 C 30.398438 15.761719 25.308594 10.882812 18.964844 10.882812 L 13.136719 10.882812 L 13.136719 14.558594 L 0 7.277344 L 13.136719 0 L 13.136719 3.605469 L 18.964844 3.605469 C 29.441406 3.605469 38 11.734375 38 21.769531 C 38 31.800781 29.441406 40 18.964844 40 Z M 18.964844 40 "/>
<path style=" stroke:none;fill-rule:nonzero;fill:rgb(0%,0%,0%);fill-opacity:1;" d="M 31.128906 21.632812 C 31.128906 14.644531 25.515625 8.980469 18.597656 8.980469 C 11.675781 8.980469 6.0625 14.644531 6.0625 21.632812 C 6.0625 28.621094 11.675781 34.285156 18.597656 34.285156 C 25.515625 34.285156 31.128906 28.621094 31.128906 21.632812 Z M 31.128906 21.632812 "/>
<path style=" stroke:none;fill-rule:nonzero;fill:rgb(100%,100%,100%);fill-opacity:1;" d="M 16.996094 18.121094 L 20.730469 18.121094 L 15.539062 29.386719 L 10.347656 18.121094 L 14.085938 18.121094 L 15.539062 21.304688 Z M 23.640625 18.121094 L 27.375 18.121094 L 22.183594 29.386719 L 16.996094 18.121094 L 20.730469 18.121094 L 22.183594 21.304688 Z M 23.640625 18.121094 "/>
</g>
</svg>
