<svg width="140" height="140"    viewBox="0 0 19467 20306" fill="none" xmlns="http://www.w3.org/2000/svg">
<path d="M10026.3 20122C4829.43 20093.4 494.209 15984.3 338.273 10982.4L4107.26 11003.1C4201.69 14032.2 6803.1 16477 9913.24 16494.1C13059.3 16511.4 15509.1 14094.1 15414.7 11065.3C15321.3 8070.76 12719.9 5625.95 9573.88 5608.67L6683.51 5592.79L6740.63 7425.12L113.119 3760.33L6514.38 167.791L6570.4 1964.68L9460.77 1980.56C14657 2009.11 19027.7 6083.68 19183.7 11086C19339.6 16087.8 15222.6 20150.5 10026.3 20122Z" fill="#2469FF"/>
<g style="mix-blend-mode:darken">
<ellipse cx="7155.61" cy="7364.58" rx="7155.61" ry="7364.58" transform="matrix(0.999914 0.0131284 0.023529 0.999723 2405.09 3575.99)" fill="#101010"/>
</g>
</svg>
