<svg width="136" height="133" viewBox="0 0 313 281" fill="none" xmlns="http://www.w3.org/2000/svg">
<path d="M95.6564 175.433C85.0836 169.146 68.463 161.432 50.4046 161.444C30.1154 161.456 11.1597 166.201 3.97428 175.25C0.381567 179.776 -2.6171 187.307 3.57614 192.025C6.92555 194.577 10.1486 198.189 13.2073 202.466C33.9736 184.585 61.8053 170.413 95.6564 175.433Z" fill="black"/>
<path d="M305.942 168.778C305.857 168.212 305.746 167.636 305.623 167.06C303.241 166.85 300.659 166.646 297.907 166.448C272.483 164.648 232.764 163.954 205.011 173.554C198.192 175.911 191.522 180.163 185.967 185.325C182.972 188.109 180.308 191.154 178.121 194.322C177.199 197.992 175.47 201.354 173.103 204.217C173.069 204.324 173.021 204.433 172.99 204.54L172.879 204.509C168.007 210.235 160.613 213.893 152.328 213.893C137.653 213.893 125.76 202.426 125.76 188.285C125.76 185.267 126.329 182.386 127.324 179.7C115.032 181.944 106.021 183.507 106.021 183.507C68.7916 172.841 39.1082 189.071 17.0496 208.338C31.4362 231.981 41.2474 267.749 41.2474 267.749C83.9366 288.273 231.611 281.225 244.424 271.492C251.246 266.311 251.296 257.771 251.296 253.513L282.901 191.377L306.125 178.664C306.125 178.652 306.738 174.041 305.942 168.778Z" fill="black"/>
<path d="M310.546 140.834C289.672 112.672 285.144 22.6187 147.07 54.6769C147.303 58.0697 147.714 61.4534 148.492 64.7945L155.667 96.2983C191.636 109.87 177.407 178.734 178.333 183.038C179.947 181.353 181.666 179.745 183.474 178.222C189.206 173.398 195.797 169.466 202.613 167.109C203.943 166.649 205.302 166.217 206.676 165.799C220.513 161.612 236.48 159.598 252.089 158.831C271.01 157.902 289.388 158.797 302.798 159.897C303.945 159.991 305.051 160.086 306.122 160.183C312.884 153.848 315.245 147.178 310.546 140.834Z" fill="black"/>
<path d="M162.661 156.876L147.06 88.398L141.752 65.102C141.073 62.1904 140.687 59.2453 140.425 56.2941C139.139 41.7422 142.593 26.8521 148.422 13.2687C147.699 6.52264 142.365 1.36945 135.761 0.263894C134.402 0.0354725 133.009 -0.0802609 131.568 0.0628831C123.131 0.903474 116.995 8.17641 117.867 16.3082C110.852 32.651 107.171 50.8882 111.197 68.1416L118.695 101.056L131.818 158.657L134.292 169.515C139.031 165.282 145.357 162.671 152.328 162.671C156.777 162.671 160.964 163.737 164.648 165.601L162.661 156.876Z" fill="black"/>
<path d="M170.677 192.071C170.544 192.674 170.31 193.234 170.114 193.816Z" fill="black"/>
<path d="M167.365 177.537C166.111 175.908 164.619 174.455 162.875 173.31C159.867 171.336 156.24 170.179 152.325 170.179C145.948 170.179 140.333 173.258 136.939 177.942C136.744 178.213 136.582 178.503 136.402 178.786C134.623 181.551 133.549 184.786 133.549 188.279C133.549 194.66 136.993 200.242 142.169 203.465C145.101 205.292 148.577 206.379 152.328 206.379C158.679 206.379 164.266 203.321 167.665 198.671C168.37 197.038 169.182 195.418 170.118 193.816C170.31 193.237 170.544 192.674 170.68 192.071C170.952 190.847 171.107 189.583 171.107 188.279C171.107 184.238 169.688 180.546 167.365 177.537ZM152.328 194.422C148.808 194.422 145.954 191.672 145.954 188.279C145.954 184.886 148.808 182.136 152.328 182.136C155.848 182.136 158.701 184.886 158.701 188.279C158.701 191.669 155.848 194.422 152.328 194.422Z" fill="black"/>
<path d="M170.118 193.813C169.182 195.415 168.37 197.038 167.666 198.667C168.737 197.203 169.53 195.558 170.118 193.813Z" fill="black"/>
</svg>
