<svg width="100%" height="100%" viewBox="0 0 4109 1876" fill="none" xmlns="http://www.w3.org/2000/svg">
<path d="M675.548 1458.72C302.251 1458.72 0 1159.78 0 793.836H270.728C270.728 1015.45 452.145 1193.3 675.548 1193.3C901.53 1193.3 1082.95 1015.43 1082.95 793.836C1082.95 574.753 901.53 396.902 675.548 396.902H467.931V530.959L0 265.455L467.931 0.000686646V131.464H675.548C1048.8 131.464 1353.67 427.859 1353.67 793.836C1353.67 1159.78 1048.8 1458.72 675.548 1458.72Z" fill="white"/>
<path d="M675.548 1458.72C302.251 1458.72 0 1159.78 0 793.836H270.728C270.728 1015.45 452.145 1193.3 675.548 1193.3C901.53 1193.3 1082.95 1015.43 1082.95 793.836C1082.95 574.753 901.53 396.902 675.548 396.902H467.931V530.959L0 265.455L467.931 0.000686646V131.464H675.548C1048.8 131.464 1353.67 427.859 1353.67 793.836C1353.67 1159.78 1048.8 1458.72 675.548 1458.72Z" fill="#2469FF"/>
<g style="mix-blend-mode:darken">
<ellipse cx="677" cy="784.76" rx="428" ry="447" fill="#101010"/>
</g>
<path d="M618.6 674.426H731.533L574.6 1011.76L417.667 674.426H530.6L574.6 769.76L618.6 674.426ZM819.533 674.426H932.467L775.533 1011.76L618.6 674.426H731.533L775.533 769.76L819.533 674.426Z" fill="white"/>
</svg>
