<svg width="323" height="199" viewBox="0 0 323 199" fill="none" xmlns="http://www.w3.org/2000/svg">
<path d="M146.754 148.268C168.715 125.761 187.494 17.6212 172.25 3.26611C169.219 0.412013 157.137 -2.37246 150.75 3.26668C112.239 37.2687 61.7879 43.1491 22.25 3.26646C14.2201 -4.83347 2.4554 4.80509 0.810502 10.264C-5.64377 31.6837 28.3754 134.998 34.7531 143.765C38.2501 150.764 52.2536 157.264 58.7541 148.268C65.2547 139.272 84.2536 110.764 84.2536 110.764C84.2536 110.764 92.7536 99.264 102.746 112.266L124.754 148.268C130.254 154.764 140.415 154.764 146.754 148.268Z" fill="#240EEA"/>
<path d="M303.297 115.218C321.297 110.718 321.797 122.215 312.297 134.718C293.797 152.222 276.293 164.722 237.293 154.222C214.793 146.722 196.293 132.718 189.297 108.721C183.319 88.2182 180.864 55.9521 202.797 30.2182C225.84 6.70596 242.987 4.09903 277.797 9.22112C327.657 24.8426 330.797 59.2182 312.297 82.7182C293.792 99.0204 247.793 110.218 233.793 84.2182C232.778 115.068 259.342 120.965 303.297 115.218Z" fill="#240EEA"/>
<path d="M58.6519 194L61.8919 175.4H56.4119L57.5719 169H76.1719L75.0119 175.4H69.4919L66.2519 194H58.6519ZM55.9719 170.8L39.0519 169H56.2919L55.9719 170.8ZM55.3319 174.64L38.3719 172.84H55.6119L55.3319 174.64ZM60.1319 178.48L43.1719 176.68H60.4519L60.1319 178.48ZM59.4519 182.32L42.4919 180.52H59.7719L59.4519 182.32ZM58.7719 186.16L41.8119 184.36H59.0919L58.7719 186.16ZM58.0919 190L41.1319 188.2H58.4119L58.0919 190ZM57.4119 193.88L40.4519 192.08H57.7319L57.4119 193.88ZM103.594 194L107.274 172.84H117.434C118.928 172.84 120.088 173.067 120.914 173.52C121.768 173.973 122.368 174.6 122.714 175.4C123.088 176.2 123.274 177.107 123.274 178.12C123.274 178.92 123.154 179.893 122.914 181.04C122.701 182.187 122.288 183.307 121.674 184.4C121.088 185.467 120.221 186.32 119.074 186.96L121.354 194H113.874L112.354 187.84H111.394L110.314 194H103.594ZM105.674 174.64L88.7144 172.84H105.954L105.674 174.64ZM104.994 178.48L88.0344 176.68H105.314L104.994 178.48ZM112.354 182.36H113.634C114.168 182.36 114.621 182.293 114.994 182.16C115.394 182 115.634 181.667 115.714 181.16L115.954 179.76C115.954 179.707 115.954 179.667 115.954 179.64C115.981 179.587 115.994 179.547 115.994 179.52C115.994 179.147 115.794 178.92 115.394 178.84C115.021 178.733 114.514 178.68 113.874 178.68H112.994L112.354 182.36ZM104.314 182.32L87.3544 180.52H104.634L104.314 182.32ZM103.634 186.16L86.6744 184.36H103.954L103.634 186.16ZM102.954 190L85.9944 188.2H103.274L102.954 190ZM102.274 193.88L85.3144 192.08H102.594L102.274 193.88ZM152.743 194L161.623 172.84H171.543L173.103 194H166.103L165.943 190.76H160.903L159.663 194H152.743ZM159.583 174.56L143.262 172.84H160.303L159.583 174.56ZM157.983 178.44L141.622 176.68H158.703L157.983 178.44ZM163.023 185.04H165.943V178.96H165.383L163.023 185.04ZM156.343 182.28L139.982 180.52H157.103L156.343 182.28ZM154.743 186.12L138.342 184.36H155.463L154.743 186.12ZM153.103 189.96L136.702 188.2H153.863L153.103 189.96ZM151.463 193.84L135.062 192.08H152.223L151.463 193.84ZM204.335 194L208.015 172.84H213.455L217.615 180.72H217.855L219.215 172.84H225.895L222.175 194H216.735L212.615 186.08H212.455L211.055 194H204.335ZM206.415 174.64L189.455 172.84H206.695L206.415 174.64ZM205.735 178.48L188.775 176.68H206.055L205.735 178.48ZM205.055 182.32L188.095 180.52H205.375L205.055 182.32ZM204.375 186.16L187.415 184.36H204.695L204.375 186.16ZM203.695 190L186.735 188.2H204.015L203.695 190ZM203.015 193.88L186.055 192.08H203.335L203.015 193.88ZM263.917 194.48C262.664 194.48 261.384 194.413 260.077 194.28C258.797 194.147 257.531 193.907 256.277 193.56L258.237 187.64C260.317 188.227 262.317 188.52 264.237 188.52C264.717 188.52 265.171 188.52 265.597 188.52C266.051 188.493 266.517 188.453 266.997 188.4L267.197 187.12L264.677 186.84C262.464 186.6 260.917 186.08 260.037 185.28C259.157 184.48 258.717 183.387 258.717 182C258.717 181.707 258.731 181.387 258.757 181.04C258.811 180.693 258.864 180.347 258.917 180C259.264 178.08 259.784 176.573 260.477 175.48C261.197 174.387 262.197 173.613 263.477 173.16C264.784 172.68 266.491 172.44 268.597 172.44C271.131 172.44 273.517 172.72 275.757 173.28L273.837 179.12C272.904 178.907 272.051 178.747 271.277 178.64C270.504 178.533 269.664 178.48 268.757 178.48C268.251 178.48 267.837 178.493 267.517 178.52C267.197 178.52 266.811 178.547 266.357 178.6L266.157 179.76L268.157 180C270.504 180.267 272.157 180.867 273.117 181.8C274.104 182.733 274.597 183.907 274.597 185.32C274.597 185.56 274.584 185.813 274.557 186.08C274.531 186.347 274.491 186.613 274.437 186.88C274.117 188.72 273.611 190.16 272.917 191.2C272.224 192.24 271.397 193 270.437 193.48C269.477 193.933 268.437 194.213 267.317 194.32C266.197 194.427 265.064 194.48 263.917 194.48ZM259.637 174.52L244.037 172.84H261.277C260.957 173.08 260.651 173.333 260.357 173.6C260.091 173.867 259.851 174.173 259.637 174.52ZM257.997 178.48L241.277 176.68H258.517C258.411 176.947 258.317 177.24 258.237 177.56C258.157 177.853 258.077 178.16 257.997 178.48ZM257.517 182.32L240.557 180.52H257.597C257.571 180.76 257.544 181.013 257.517 181.28C257.517 181.52 257.517 181.76 257.517 182V182.32ZM259.037 186.16L242.117 184.36H257.877C258.117 185.053 258.504 185.653 259.037 186.16ZM256.197 189.96L239.517 188.2H256.757L256.197 189.96ZM254.917 193.88L238.197 192.08H255.477L254.917 193.88Z" fill="black"/>
</svg>
