<svg width="90" height="50" viewBox="0 0 90 50" fill="none" xmlns="http://www.w3.org/2000/svg">
<path d="M41.7173 33.7932C46.4637 28.6635 50.5224 4.01622 47.2278 0.744412C46.5727 0.093906 43.9614 -0.540731 42.581 0.744542C34.2579 8.49427 23.354 9.83454 14.8088 0.744491C13.0733 -1.10164 10.5307 1.09518 10.1752 2.33936C8.78023 7.22134 16.1327 30.7688 17.5111 32.767C18.2668 34.3621 21.2934 35.8436 22.6983 33.7932C24.1033 31.7428 28.2094 25.2453 28.2094 25.2453C28.2094 25.2453 30.0465 22.6242 32.2062 25.5877L36.9626 33.7932C38.1512 35.2738 40.3474 35.2738 41.7173 33.7932Z" fill="#240EEA"/>
<path d="M77.8074 25.2341C81.6977 24.2084 81.8058 26.8288 79.7525 29.6785C75.7542 33.668 71.9712 36.517 63.5423 34.1238C58.6794 32.4144 54.6811 29.2227 53.169 23.7532C51.877 19.0802 51.3465 11.7261 56.0867 5.86086C61.0668 0.501958 64.7728 -0.0922145 72.2962 1.07521C83.0721 4.63565 83.7509 12.4705 79.7525 17.8267C75.7532 21.5423 65.8116 24.0945 62.7858 18.1685C62.5663 25.1997 68.3075 26.5439 77.8074 25.2341Z" fill="#240EEA"/>
<path d="M7.61945 48L8.83445 41.025H6.77946L7.21445 38.625H14.1895L13.7545 41.025H11.6845L10.4695 48H7.61945ZM6.61445 39.3L0.269455 38.625H6.73445L6.61445 39.3ZM6.37445 40.74L0.0144545 40.065H6.47945L6.37445 40.74ZM8.17445 42.18L1.81445 41.505H8.29445L8.17445 42.18ZM7.91945 43.62L1.55945 42.945H8.03945L7.91945 43.62ZM7.66445 45.06L1.30445 44.385H7.78446L7.66445 45.06ZM7.40946 46.5L1.04945 45.825H7.52945L7.40946 46.5ZM7.15445 47.955L0.794455 47.28H7.27445L7.15445 47.955ZM24.4729 48L25.8529 40.065H29.6629C30.2229 40.065 30.6579 40.15 30.9679 40.32C31.2879 40.49 31.5129 40.725 31.6429 41.025C31.7829 41.325 31.8529 41.665 31.8529 42.045C31.8529 42.345 31.8079 42.71 31.7179 43.14C31.6379 43.57 31.4829 43.99 31.2529 44.4C31.0329 44.8 30.7079 45.12 30.2779 45.36L31.1329 48H28.3279L27.7579 45.69H27.3979L26.9929 48H24.4729ZM25.2529 40.74L18.8929 40.065H25.3579L25.2529 40.74ZM24.9979 42.18L18.6379 41.505H25.1179L24.9979 42.18ZM27.7579 43.635H28.2379C28.4379 43.635 28.6079 43.61 28.7479 43.56C28.8979 43.5 28.9879 43.375 29.0179 43.185L29.1079 42.66C29.1079 42.64 29.1079 42.625 29.1079 42.615C29.1179 42.595 29.1229 42.58 29.1229 42.57C29.1229 42.43 29.0479 42.345 28.8979 42.315C28.7579 42.275 28.5679 42.255 28.3279 42.255H27.9979L27.7579 43.635ZM24.7429 43.62L18.3829 42.945H24.8629L24.7429 43.62ZM24.4879 45.06L18.1279 44.385H24.6079L24.4879 45.06ZM24.2329 46.5L17.8729 45.825H24.3529L24.2329 46.5ZM23.9779 47.955L17.6179 47.28H24.0979L23.9779 47.955ZM42.9034 48L46.2334 40.065H49.9534L50.5384 48H47.9134L47.8534 46.785H45.9634L45.4984 48H42.9034ZM45.4684 40.71L39.3484 40.065H45.7384L45.4684 40.71ZM44.8684 42.165L38.7334 41.505H45.1384L44.8684 42.165ZM46.7584 44.64H47.8534V42.36H47.6434L46.7584 44.64ZM44.2534 43.605L38.1184 42.945H44.5384L44.2534 43.605ZM43.6534 45.045L37.5034 44.385H43.9234L43.6534 45.045ZM43.0384 46.485L36.8884 45.825H43.3234L43.0384 46.485ZM42.4234 47.94L36.2734 47.28H42.7084L42.4234 47.94ZM62.2506 48L63.6306 40.065H65.6706L67.2306 43.02H67.3206L67.8306 40.065H70.3356L68.9406 48H66.9006L65.3556 45.03H65.2956L64.7706 48H62.2506ZM63.0306 40.74L56.6706 40.065H63.1356L63.0306 40.74ZM62.7756 42.18L56.4156 41.505H62.8956L62.7756 42.18ZM62.5206 43.62L56.1606 42.945H62.6406L62.5206 43.62ZM62.2656 45.06L55.9056 44.385H62.3856L62.2656 45.06ZM62.0106 46.5L55.6506 45.825H62.1306L62.0106 46.5ZM61.7556 47.955L55.3956 47.28H61.8756L61.7556 47.955ZM84.5939 48.18C84.1239 48.18 83.6439 48.155 83.1539 48.105C82.6739 48.055 82.1989 47.965 81.7289 47.835L82.4639 45.615C83.2439 45.835 83.9939 45.945 84.7139 45.945C84.8939 45.945 85.0639 45.945 85.2239 45.945C85.3939 45.935 85.5689 45.92 85.7489 45.9L85.8239 45.42L84.8789 45.315C84.0489 45.225 83.4689 45.03 83.1389 44.73C82.8089 44.43 82.6439 44.02 82.6439 43.5C82.6439 43.39 82.6489 43.27 82.6589 43.14C82.6789 43.01 82.6989 42.88 82.7189 42.75C82.8489 42.03 83.0439 41.465 83.3039 41.055C83.5739 40.645 83.9489 40.355 84.4289 40.185C84.9189 40.005 85.5589 39.915 86.3489 39.915C87.2989 39.915 88.1939 40.02 89.0339 40.23L88.3139 42.42C87.9639 42.34 87.6439 42.28 87.3539 42.24C87.0639 42.2 86.7489 42.18 86.4089 42.18C86.2189 42.18 86.0639 42.185 85.9439 42.195C85.8239 42.195 85.6789 42.205 85.5089 42.225L85.4339 42.66L86.1839 42.75C87.0639 42.85 87.6839 43.075 88.0439 43.425C88.4139 43.775 88.5989 44.215 88.5989 44.745C88.5989 44.835 88.5939 44.93 88.5839 45.03C88.5739 45.13 88.5589 45.23 88.5389 45.33C88.4189 46.02 88.2289 46.56 87.9689 46.95C87.7089 47.34 87.3989 47.625 87.0389 47.805C86.6789 47.975 86.2889 48.08 85.8689 48.12C85.4489 48.16 85.0239 48.18 84.5939 48.18ZM82.9889 40.695L77.1389 40.065H83.6039C83.4839 40.155 83.3689 40.25 83.2589 40.35C83.1589 40.45 83.0689 40.565 82.9889 40.695ZM82.3739 42.18L76.1039 41.505H82.5689C82.5289 41.605 82.4939 41.715 82.4639 41.835C82.4339 41.945 82.4039 42.06 82.3739 42.18ZM82.1939 43.62L75.8339 42.945H82.2239C82.2139 43.035 82.2039 43.13 82.1939 43.23C82.1939 43.32 82.1939 43.41 82.1939 43.5V43.62ZM82.7639 45.06L76.4189 44.385H82.3289C82.4189 44.645 82.5639 44.87 82.7639 45.06ZM81.6989 46.485L75.4439 45.825H81.9089L81.6989 46.485ZM81.2189 47.955L74.9489 47.28H81.4289L81.2189 47.955Z" fill="black"/>
</svg>
