<svg width="4366" height="4182" viewBox="0 0 4366 4182" fill="none" xmlns="http://www.w3.org/2000/svg">
<g clip-path="url(#clip0_65_187)">
<path d="M2199.27 2883.93C1825.99 2887.88 1520.59 2592.16 1516.72 2226.23L1787.43 2223.37C1789.78 2444.97 1973.07 2620.89 2196.46 2618.53C2422.43 2616.14 2601.95 2436.36 2599.61 2214.78C2597.29 1995.71 2414 1819.78 2188.03 1822.18L1980.43 1824.37L1981.84 1958.42L1511.13 1697.88L1976.23 1427.49L1977.62 1558.95L2185.22 1556.75C2558.45 1552.8 2866.45 1845.96 2870.32 2211.91C2874.19 2577.84 2572.49 2879.99 2199.27 2883.93Z" fill="#2469FF"/>
<g style="mix-blend-mode:darken">
<ellipse cx="2193" cy="2210" rx="428" ry="447" fill="#101010"/>
</g>
<path d="M2134.6 2099.67H2247.53L2090.6 2437L1933.67 2099.67H2046.6L2090.6 2195L2134.6 2099.67ZM2335.53 2099.67H2448.47L2291.53 2437L2134.6 2099.67H2247.53L2291.53 2195L2335.53 2099.67Z" fill="white"/>
<path d="M1501.62 3229C1502.79 3229 1503.88 3229.38 1504.88 3230.12C1505.88 3230.88 1506.54 3231.79 1506.88 3232.88L1524.25 3289.25L1541.38 3232.75C1542.12 3230.25 1543.71 3229 1546.12 3229C1547.46 3229 1548.54 3229.42 1549.38 3230.25C1550.21 3231 1550.62 3231.83 1550.62 3232.75C1550.62 3233.67 1550.5 3234.5 1550.25 3235.25L1530.25 3296.88C1529.17 3299.96 1527.12 3301.5 1524.12 3301.5C1522.79 3301.5 1521.54 3301.08 1520.38 3300.25C1519.29 3299.42 1518.54 3298.29 1518.12 3296.88L1501.62 3244.75L1485.12 3296.88C1484.71 3298.21 1483.92 3299.33 1482.75 3300.25C1481.67 3301.08 1480.46 3301.5 1479.12 3301.5C1476.21 3301.5 1474.17 3299.96 1473 3296.88L1453 3235.25C1452.83 3234.5 1452.75 3233.67 1452.75 3232.75C1452.75 3231.83 1453.12 3231 1453.88 3230.25C1454.71 3229.42 1455.75 3229 1457 3229C1459.5 3229 1461.08 3230.25 1461.75 3232.75L1479 3289.25L1496.25 3232.88C1496.58 3231.71 1497.25 3230.79 1498.25 3230.12C1499.33 3229.38 1500.46 3229 1501.62 3229ZM1757.1 3292.25C1758.27 3292.25 1759.27 3292.71 1760.1 3293.62C1761.02 3294.46 1761.48 3295.5 1761.48 3296.75C1761.48 3297.92 1761.02 3298.92 1760.1 3299.75C1759.27 3300.58 1758.27 3301 1757.1 3301H1715.98C1714.73 3301 1713.65 3300.54 1712.73 3299.62C1711.81 3298.71 1711.35 3297.62 1711.35 3296.38V3234.25C1711.35 3233 1711.81 3231.92 1712.73 3231C1713.65 3230 1714.73 3229.5 1715.98 3229.5H1757.1C1758.27 3229.5 1759.27 3229.96 1760.1 3230.88C1761.02 3231.71 1761.48 3232.71 1761.48 3233.88C1761.48 3235.04 1761.02 3236.08 1760.1 3237C1759.27 3237.83 1758.27 3238.25 1757.1 3238.25H1720.73V3260.88H1753.35C1754.52 3260.88 1755.52 3261.29 1756.35 3262.12C1757.27 3262.96 1757.73 3264 1757.73 3265.25C1757.73 3266.42 1757.31 3267.46 1756.48 3268.38C1755.65 3269.21 1754.6 3269.62 1753.35 3269.62H1720.73V3292.25H1757.1ZM2149.32 3229.5C2150.57 3229.5 2151.61 3229.96 2152.44 3230.88C2153.27 3231.71 2153.69 3232.71 2153.69 3233.88C2153.69 3235.04 2153.27 3236.08 2152.44 3237C2151.61 3237.83 2150.57 3238.25 2149.32 3238.25H2128.44V3296.88C2128.44 3298.12 2127.98 3299.21 2127.07 3300.12C2126.23 3301.04 2125.15 3301.5 2123.82 3301.5C2122.57 3301.5 2121.48 3301.04 2120.57 3300.12C2119.65 3299.21 2119.19 3298.12 2119.19 3296.88V3238.25H2098.32C2097.15 3238.25 2096.11 3237.83 2095.19 3237C2094.36 3236.17 2093.94 3235.12 2093.94 3233.88C2093.94 3232.71 2094.36 3231.71 2095.19 3230.88C2096.02 3229.96 2097.07 3229.5 2098.32 3229.5H2149.32ZM2369.17 3296.88C2369.17 3298.12 2368.71 3299.21 2367.79 3300.12C2366.96 3301.04 2365.84 3301.5 2364.42 3301.5C2363.09 3301.5 2361.96 3301.08 2361.04 3300.25C2360.21 3299.42 2359.79 3298.29 2359.79 3296.88V3293.75C2359.79 3288.25 2359.17 3284.21 2357.92 3281.62C2356.75 3279.04 2355.09 3277 2352.92 3275.5C2350.84 3273.92 2347.84 3273.12 2343.92 3273.12H2322.79V3296.88C2322.79 3298.12 2322.34 3299.21 2321.42 3300.12C2320.5 3301.04 2319.38 3301.5 2318.04 3301.5C2316.79 3301.5 2315.71 3301.04 2314.79 3300.12C2313.88 3299.21 2313.42 3298.12 2313.42 3296.88V3234.25C2313.42 3233 2313.88 3231.92 2314.79 3231C2315.71 3230 2316.79 3229.5 2318.04 3229.5H2341.92C2351.25 3229.5 2358.34 3231.5 2363.17 3235.5C2367.67 3239.25 2369.88 3244.17 2369.79 3250.25C2369.79 3254.17 2368.67 3257.88 2366.42 3261.38C2364.25 3264.79 2360.88 3267.25 2356.29 3268.75C2361.21 3270 2364.79 3273.58 2367.04 3279.5C2368.54 3283.33 2369.25 3287.58 2369.17 3292.25V3296.88ZM2341.29 3264.25C2347.04 3264.25 2351.67 3263.17 2355.17 3261C2358.67 3258.75 2360.42 3255.42 2360.42 3251C2360.42 3246.92 2359.04 3243.83 2356.29 3241.75C2353.04 3239.42 2347.88 3238.25 2340.79 3238.25H2322.79V3264.25H2341.29ZM2593.15 3294.88C2593.48 3295.71 2593.65 3296.58 2593.65 3297.5C2593.65 3298.33 2593.23 3299.21 2592.4 3300.12C2591.65 3301.04 2590.36 3301.5 2588.53 3301.5C2586.78 3301.5 2585.48 3300.54 2584.65 3298.62L2578.03 3282.75H2543.15L2536.65 3298.62C2535.82 3300.54 2534.48 3301.5 2532.65 3301.5C2530.9 3301.5 2529.61 3301.04 2528.78 3300.12C2528.03 3299.21 2527.65 3298.33 2527.65 3297.5C2527.65 3296.58 2527.82 3295.71 2528.15 3294.88L2554.15 3233.25C2555.32 3230.42 2557.32 3229 2560.15 3229H2561.15C2563.9 3229 2565.9 3230.42 2567.15 3233.25L2593.15 3294.88ZM2574.53 3274.25L2560.65 3240.88L2546.78 3274.25H2574.53ZM2812.26 3229C2813.51 3229 2814.59 3229.46 2815.51 3230.38C2816.42 3231.29 2816.88 3232.42 2816.88 3233.75V3294.88C2816.88 3296.71 2816.21 3298.29 2814.88 3299.62C2813.55 3300.88 2811.96 3301.5 2810.13 3301.5H2808.88C2806.63 3301.5 2804.84 3300.58 2803.51 3298.75L2763.88 3241.5V3296.88C2763.88 3298.12 2763.42 3299.21 2762.51 3300.12C2761.59 3301.04 2760.46 3301.5 2759.13 3301.5C2757.88 3301.5 2756.8 3301.04 2755.88 3300.12C2754.96 3299.21 2754.51 3298.12 2754.51 3296.88V3235.75C2754.51 3233.92 2755.13 3232.33 2756.38 3231C2757.71 3229.67 2759.34 3229 2761.26 3229H2762.51C2764.67 3229 2766.59 3230.04 2768.26 3232.12L2807.63 3289V3233.75C2807.63 3232.5 2808.09 3231.42 2809.01 3230.5C2809.92 3229.5 2811.01 3229 2812.26 3229ZM3006.73 3293.25C3018.65 3293.25 3024.65 3289.29 3024.73 3281.38C3024.73 3278.12 3022.44 3275.54 3017.86 3273.62C3015.86 3272.79 3013.53 3272.04 3010.86 3271.38C3008.28 3270.71 3005.65 3270 3002.98 3269.25C3000.32 3268.5 2997.65 3267.67 2994.98 3266.75C2992.32 3265.75 2989.98 3264.5 2987.98 3263C2983.48 3259.58 2981.19 3255.08 2981.11 3249.5C2981.11 3243.5 2983.4 3238.58 2987.98 3234.75C2992.9 3230.58 2999.48 3228.5 3007.73 3228.5C3015.23 3228.5 3021.98 3229.62 3027.98 3231.88C3029.9 3232.54 3030.9 3233.92 3030.98 3236C3030.98 3237 3030.61 3237.96 3029.86 3238.88C3029.19 3239.79 3028.4 3240.25 3027.48 3240.25C3026.65 3240.25 3025.48 3240 3023.98 3239.5C3019.48 3237.92 3014.4 3237.12 3008.73 3237.12C3003.48 3237.12 2999.15 3238.12 2995.73 3240.12C2992.23 3242.21 2990.48 3245.08 2990.48 3248.75C2990.48 3252.58 2992.73 3255.54 2997.23 3257.62C2999.32 3258.54 3001.65 3259.33 3004.23 3260C3006.82 3260.58 3009.48 3261.21 3012.23 3261.88C3014.98 3262.54 3017.61 3263.38 3020.11 3264.38C3022.69 3265.29 3025.03 3266.46 3027.11 3267.88C3031.61 3271.12 3033.9 3275.88 3033.98 3282.12C3033.98 3287.96 3031.61 3292.71 3026.86 3296.38C3022.03 3300.12 3015.65 3302 3007.73 3302C2999.07 3302 2990.94 3300.38 2983.36 3297.12C2982.61 3296.79 2981.94 3296.25 2981.36 3295.5C2980.78 3294.67 2980.48 3293.75 2980.48 3292.75C2980.48 3291.75 2980.86 3290.83 2981.61 3290C2982.36 3289.08 2983.19 3288.62 2984.11 3288.62C2985.11 3288.62 2986.32 3288.96 2987.73 3289.62C2989.23 3290.29 2991.65 3291.08 2994.98 3292C2998.32 3292.83 3002.23 3293.25 3006.73 3293.25Z" fill="black"/>
</g>
<defs>
<clipPath id="clip0_65_187">
<rect width="4366" height="4182" fill="white"/>
</clipPath>
</defs>
</svg>
