<svg width="35" height="37" viewBox="0 0 35 37" fill="none" xmlns="http://www.w3.org/2000/svg">
<g clip-path="url(#clip0_25_95)">
<path d="M21.9462 7.70963C23.3706 8.00342 24.6797 8.73986 25.7059 9.8247C26.7321 10.9095 27.4287 12.2934 27.7066 13.7992M21.9462 1.54297C24.9056 1.89052 27.6652 3.29149 29.772 5.51585C31.8788 7.74022 33.2075 10.6558 33.54 13.7838M32.0816 26.0863V30.7113C32.0833 31.1407 32.0001 31.5656 31.8374 31.959C31.6747 32.3524 31.436 32.7056 31.1367 32.9958C30.8375 33.2861 30.4841 33.5071 30.0994 33.6446C29.7146 33.7822 29.307 33.8333 28.9025 33.7946C24.4149 33.2792 20.1043 31.6581 16.317 29.0617C12.7935 26.6947 9.80608 23.5366 7.56705 19.8117C5.10243 15.7898 3.56865 11.2108 3.08996 6.44547C3.05352 6.01915 3.10145 5.58947 3.23069 5.18381C3.35994 4.77814 3.56767 4.40536 3.84066 4.08922C4.11366 3.77307 4.44593 3.52048 4.81632 3.34752C5.18672 3.17457 5.58713 3.08504 5.99205 3.08464H10.367C11.0748 3.07727 11.7609 3.34221 12.2975 3.83008C12.8342 4.31795 13.1847 4.99545 13.2837 5.7363C13.4684 7.2164 13.8108 8.66967 14.3045 10.0684C14.5008 10.6202 14.5432 11.2199 14.4269 11.7964C14.3106 12.3729 14.0404 12.9021 13.6483 13.3213L11.7962 15.2792C13.8722 19.1388 16.8952 22.3346 20.5462 24.5292L22.3983 22.5713C22.7948 22.1568 23.2954 21.8712 23.8408 21.7482C24.3861 21.6252 24.9534 21.6701 25.4754 21.8775C26.7985 22.3995 28.1732 22.7615 29.5733 22.9567C30.2817 23.0624 30.9287 23.4396 31.3912 24.0166C31.8536 24.5936 32.0994 25.3302 32.0816 26.0863Z" stroke="#F5F5F5" stroke-width="4" stroke-linecap="round" stroke-linejoin="round"/>
</g>
<defs>
<clipPath id="clip0_25_95">
<rect width="35" height="37" fill="white"/>
</clipPath>
</defs>
</svg>
