<svg version="1.2" xmlns="http://www.w3.org/2000/svg" viewBox="0 0 33 35" width="100" height="100">
	<title>w</title>
	<defs>
		<filter x="-50%" y="-50%" width="200%" height="200%" id="f1"> <feGaussianBlur stdDeviation="1.9"/> </filter>
	</defs>
	<style>
		.s0 { mix-blend-mode: darken;fill: #101010 } 
		.s1 { fill: #ffffff } 
		.s2 { filter: url(#f1);fill: #ffffff } 
	</style>
	<g>
		<path fill-rule="evenodd" class="s0" d="m16.5 34.6c-9.1 0-16.5-7.7-16.5-17.2 0-9.5 7.4-17.1 16.5-17.1 9.1 0 16.4 7.6 16.4 17.1 0 9.5-7.3 17.2-16.4 17.2z"/>
	</g>
	<path class="s1" d="m14.2 13.2h4.4l-6.1 13-6-13h4.3l1.7 3.7zm7.7 0h4.4l-6 12.9-6.1-12.9h4.4l1.7 3.6z"/>
	<g>
		<path class="s2" d="m14.2 13.5h4.4l-6.1 13-6-13h4.3l1.7 3.7zm7.7 0h4.4l-6 12.9-6.1-12.9h4.4l1.7 3.6z"/>
	</g>
	<g>
		<path class="s2" d="m14.2 13.5h4.4l-6.1 13-6-13h4.3l1.7 3.7zm7.7 0h4.4l-6 12.9-6.1-12.9h4.4l1.7 3.6z"/>
	</g>
</svg>